<svg width="76" height="69" viewBox="0 0 76 69" fill="none" xmlns="http://www.w3.org/2000/svg">
<path d="M14.25 8.625H9.5V13.3283H14.25V8.625Z" fill="white"/>
<path d="M54.5211 10.9834V30.174H21.4789V10.9834H54.5211ZM57 8.625H19V32.5189H57V8.625Z" fill="white"/>
<path d="M54.5211 38.799V58.0301H21.4789V38.799H54.5211ZM57 36.4406H19V60.375H57V36.4406Z" fill="white"/>
<path d="M14.25 18.0316H9.5V22.735H14.25V18.0316Z" fill="white"/>
<path d="M14.25 27.4383H9.5V32.1416H14.25V27.4383Z" fill="white"/>
<path d="M14.25 36.8584H9.5V41.5617H14.25V36.8584Z" fill="white"/>
<path d="M14.25 46.265H9.5V50.9684H14.25V46.265Z" fill="white"/>
<path d="M14.25 55.6717H9.5V60.375H14.25V55.6717Z" fill="white"/>
<path d="M66.5 8.625H61.75V13.3283H66.5V8.625Z" fill="white"/>
<path d="M66.5 18.0316H61.75V22.735H66.5V18.0316Z" fill="white"/>
<path d="M66.5 27.4383H61.75V32.1416H66.5V27.4383Z" fill="white"/>
<path d="M66.5 36.8584H61.75V41.5617H66.5V36.8584Z" fill="white"/>
<path d="M66.5 46.265H61.75V50.9684H66.5V46.265Z" fill="white"/>
<path d="M66.5 55.6717H61.75V60.375H66.5V55.6717Z" fill="white"/>
</svg>
