<svg width="80" height="76" viewBox="0 0 80 76" fill="none" xmlns="http://www.w3.org/2000/svg">
<path d="M40 19.1722C40.1438 19.1722 54.325 19.1722 63.6875 19.8134L64.1 19.8491C65.35 19.9559 66.7 20.0806 68.025 21.3809C68.65 21.9747 69.3625 24.0766 69.6063 25.5787C70.0014 28.8729 70.21 32.1849 70.2313 35.5003V40.3928C70.2092 43.7102 70.0006 47.0241 69.6063 50.3203C69.375 51.7869 68.6437 53.9184 68.0312 54.4766C66.7125 55.7709 65.3313 55.8956 64.1125 56.0084L63.6875 56.05C54.4875 56.6437 40.6313 56.7031 40.0063 56.7031C39.2875 56.7031 22.5063 56.5428 17.15 56.1094C16.8313 56.0619 16.525 56.0203 16.1625 55.9847C14.7375 55.8244 13.1187 55.6403 11.9562 54.4944C11.3312 53.9006 10.6188 51.8047 10.3813 50.3084C9.98615 47.0143 9.77752 43.7023 9.75625 40.3869V35.5419C9.77846 32.2265 9.98709 28.9146 10.3813 25.6203C10.625 24.1062 11.35 22.0044 11.9625 21.4225C13.2875 20.1222 14.6688 20.0034 15.8875 19.8906L16.3 19.855C25.675 19.2197 39.8438 19.2137 39.9813 19.2137H40M40 15.3544C40 15.3544 25.5688 15.3544 15.95 16.0075C14.6063 16.1559 11.6813 16.1678 9.075 18.7328C7.01875 20.6922 6.34375 25.1394 6.34375 25.1394C5.90671 28.592 5.66677 32.0646 5.625 35.5419V40.4344C5.65474 43.925 5.88425 47.4115 6.3125 50.8784C6.3125 50.8784 6.98125 55.3256 9.04375 57.2791C11.6625 59.8441 15.0938 59.7669 16.625 60.04C22.125 60.5328 40 60.6872 40 60.6872C40 60.6872 54.4438 60.6872 64.0688 60.0162C65.4125 59.8678 68.3438 59.85 70.9438 57.285C73 55.3316 73.675 50.8844 73.675 50.8844C74.1073 47.4176 74.341 43.9311 74.375 40.4403V35.5478C74.3452 32.0572 74.1157 28.5707 73.6875 25.1037C73.6875 25.1037 73.0187 20.6566 70.9562 18.6972C68.3437 16.1322 65.4125 16.1144 64.0812 15.9719C54.4437 15.3128 40 15.3128 40 15.3128V15.3544Z" fill="white"/>
<path d="M33.8313 28.2684V47.7316L51.325 38L33.8313 28.2684Z" fill="white"/>
</svg>
